<?xml version="1.0" encoding="iso-8859-1"?>
<!-- Generator: Adobe Illustrator 19.0.0, SVG Export Plug-In . SVG Version: 6.00 Build 0)  -->
<svg version="1.1" id="Layer_1" xmlns="http://www.w3.org/2000/svg" xmlns:xlink="http://www.w3.org/1999/xlink" x="0px" y="0px"
	 viewBox="0 0 512.001 512.001" style="enable-background:new 0 0 512.001 512.001;" xml:space="preserve">
<g>
	<g>
		<path d="M365.514,264.176c-4.508-4.508-4.508-11.843,0-16.351l137.14-137.14c12.462-12.462,12.462-32.739,0-45.201L446.517,9.348
			c-12.462-12.462-32.739-12.461-45.2,0l-137.14,137.14c-4.508,4.508-11.843,4.508-16.351,0L110.684,9.348
			c-12.461-12.462-32.737-12.462-45.201,0L9.347,65.483c-12.462,12.461-12.462,32.738,0,45.201l137.14,137.14
			c4.508,4.508,4.508,11.843,0,16.351L9.347,401.316c-12.462,12.462-12.462,32.739,0,45.201l56.138,56.136
			c6.231,6.231,14.415,9.346,22.6,9.346s16.37-3.115,22.601-9.346l137.14-137.14c4.508-4.508,11.843-4.508,16.351,0l137.141,137.14
			c12.461,12.462,32.737,12.462,45.201,0l56.136-56.136c12.462-12.461,12.462-32.738,0-45.201L365.514,264.176z M488.228,432.092
			l-56.135,56.136c-4.51,4.508-11.844,4.509-16.352,0l-137.14-137.139c-12.462-12.463-32.738-12.463-45.201,0l-137.14,137.14
			c-4.508,4.507-11.843,4.508-16.351,0l-56.136-56.137c-4.508-4.507-4.508-11.843,0-16.351l137.14-137.14
			c12.462-12.462,12.462-32.739,0-45.201L23.772,96.26c-4.508-4.508-4.508-11.844,0-16.352l56.135-56.136
			c2.255-2.254,5.216-3.381,8.177-3.381s5.921,1.127,8.175,3.381L233.4,160.912c12.462,12.463,32.738,12.463,45.201,0
			l137.14-137.139c4.507-4.507,11.842-4.507,16.351,0l56.136,56.136c4.508,4.507,4.508,11.843,0,16.351L351.089,233.4
			c-12.462,12.462-12.462,32.739,0,45.201L488.228,415.74C492.736,420.248,492.736,427.584,488.228,432.092z"/>
	</g>
</g>
<g>
	<g>
		<path d="M178.623,373.559c-3.985-3.983-10.442-3.983-14.426,0l-82.476,82.476c-3.983,3.984-3.983,10.443,0,14.426
			c1.992,1.992,4.601,2.987,7.212,2.987c2.61,0,5.22-0.996,7.213-2.987l82.476-82.476C182.606,384,182.606,377.542,178.623,373.559z
			"/>
	</g>
</g>
<g>
	<g>
		<path d="M209.287,342.895c-3.985-3.983-10.442-3.983-14.426,0l-6.873,6.873c-3.983,3.984-3.983,10.443,0,14.426
			c1.992,1.992,4.601,2.987,7.212,2.987s5.22-0.997,7.213-2.987l6.873-6.873C213.27,353.337,213.27,346.878,209.287,342.895z"/>
	</g>
</g>
<g>
</g>
<g>
</g>
<g>
</g>
<g>
</g>
<g>
</g>
<g>
</g>
<g>
</g>
<g>
</g>
<g>
</g>
<g>
</g>
<g>
</g>
<g>
</g>
<g>
</g>
<g>
</g>
<g>
</g>
</svg>
