<?xml version="1.0" encoding="iso-8859-1"?>
<!-- Generator: Adobe Illustrator 18.0.0, SVG Export Plug-In . SVG Version: 6.00 Build 0)  -->
<!DOCTYPE svg PUBLIC "-//W3C//DTD SVG 1.1//EN" "http://www.w3.org/Graphics/SVG/1.1/DTD/svg11.dtd">
<svg version="1.1" id="Capa_1" xmlns="http://www.w3.org/2000/svg" xmlns:xlink="http://www.w3.org/1999/xlink" x="0px" y="0px"
	 viewBox="0 0 60 60" style="enable-background:new 0 0 60 60;" xml:space="preserve">
<g>
	<path d="M37,22H12c-0.552,0-1,0.448-1,1s0.448,1,1,1h25c0.552,0,1-0.448,1-1S37.552,22,37,22z"/>
	<path d="M12,16h10c0.552,0,1-0.448,1-1s-0.448-1-1-1H12c-0.552,0-1,0.448-1,1S11.448,16,12,16z"/>
	<path d="M38,31c0-0.552-0.448-1-1-1H12c-0.552,0-1,0.448-1,1s0.448,1,1,1h25C37.552,32,38,31.552,38,31z"/>
	<path d="M30,39c0-0.552-0.448-1-1-1H12c-0.552,0-1,0.448-1,1s0.448,1,1,1h17C29.552,40,30,39.552,30,39z"/>
	<path d="M12,46c-0.552,0-1,0.448-1,1s0.448,1,1,1h14c0.552,0,1-0.448,1-1s-0.448-1-1-1H12z"/>
	<path d="M3,2h29v14h14v17h2V14.586L33.414,0H1v60h31v-2H3V2z M34,3.414L44.586,14H34V3.414z"/>
	<path d="M35,36v24h24V36H35z M57,58h-9V45.414l4.293,4.293l1.414-1.414L47,41.586l-6.707,6.707l1.414,1.414L46,45.414V58h-9V38h20
		V58z"/>
</g>
<g>
</g>
<g>
</g>
<g>
</g>
<g>
</g>
<g>
</g>
<g>
</g>
<g>
</g>
<g>
</g>
<g>
</g>
<g>
</g>
<g>
</g>
<g>
</g>
<g>
</g>
<g>
</g>
<g>
</g>
</svg>
