<?xml version="1.0" ?><svg width="400px" height="400px" viewBox="0 0 400 400" xmlns="http://www.w3.org/2000/svg"><defs><style>.cls-1{fill:#101010;}</style></defs><title/><g id="xxx-word"><path class="cls-1" d="M325,105H250a5,5,0,0,1-5-5V25a5,5,0,0,1,10,0V95h70a5,5,0,1,1,0,10Z"/><path class="cls-1" d="M325,154.83a5,5,0,0,1-5-5V102.07L247.93,30H100A20,20,0,0,0,80,50v98.17a5,5,0,0,1-10,0V50a30,30,0,0,1,30-30H250a5,5,0,0,1,3.54,1.46l75,75A5,5,0,0,1,330,100v49.83A5,5,0,0,1,325,154.83Z"/><path class="cls-1" d="M300,380H100a30,30,0,0,1-30-30V275a5,5,0,0,1,10,0v75a20,20,0,0,0,20,20H300a20,20,0,0,0,20-20V275a5,5,0,0,1,10,0v75A30,30,0,0,1,300,380Z"/><path class="cls-1" d="M275,280H125a5,5,0,0,1,0-10H275a5,5,0,0,1,0,10Z"/><path class="cls-1" d="M200,330H125a5,5,0,0,1,0-10h75a5,5,0,1,1,0,10Z"/><path class="cls-1" d="M325,280H75a30,30,0,0,1-30-30V173.17a30,30,0,0,1,30.19-30l250,1.66a30.09,30.09,0,0,1,29.81,30V250A30,30,0,0,1,325,280ZM75,153.17a20,20,0,0,0-20,20V250a20,20,0,0,0,20,20H325a20,20,0,0,0,20-20V174.83a20.06,20.06,0,0,0-19.88-20l-250-1.66Z"/><path class="cls-1" d="M192.81,236H182.54l-4.26-12.7H157.77L153.59,236h-8.2l17.7-53.32h11.84ZM175.7,215.61l-7.77-23.79-7.77,23.79Z"/><path class="cls-1" d="M216.68,236h-9.77l-16.45-53.32h10.16l12.23,40.86,12.5-40.86h8Z"/><path class="cls-1" d="M249,236h-9.61V182.68H249Z"/></g></svg>