<?xml version="1.0" ?><svg width="400px" height="400px" viewBox="0 0 400 400" xmlns="http://www.w3.org/2000/svg"><defs><style>.cls-1{fill:#101010;}</style></defs><title/><g id="xxx-word"><path class="cls-1" d="M325,105H250a5,5,0,0,1-5-5V25a5,5,0,1,1,10,0V95h70a5,5,0,0,1,0,10Z"/><path class="cls-1" d="M325,154.83a5,5,0,0,1-5-5V102.07L247.93,30H100A20,20,0,0,0,80,50v98.17a5,5,0,0,1-10,0V50a30,30,0,0,1,30-30H250a5,5,0,0,1,3.54,1.46l75,75A5,5,0,0,1,330,100v49.83A5,5,0,0,1,325,154.83Z"/><path class="cls-1" d="M300,380H100a30,30,0,0,1-30-30V275a5,5,0,0,1,10,0v75a20,20,0,0,0,20,20H300a20,20,0,0,0,20-20V275a5,5,0,0,1,10,0v75A30,30,0,0,1,300,380Z"/><path class="cls-1" d="M275,280H125a5,5,0,1,1,0-10H275a5,5,0,0,1,0,10Z"/><path class="cls-1" d="M200,330H125a5,5,0,1,1,0-10h75a5,5,0,0,1,0,10Z"/><path class="cls-1" d="M325,280H75a30,30,0,0,1-30-30V173.17a30,30,0,0,1,30-30h.2l250,1.66a30.09,30.09,0,0,1,29.81,30V250A30,30,0,0,1,325,280ZM75,153.17a20,20,0,0,0-20,20V250a20,20,0,0,0,20,20H325a20,20,0,0,0,20-20V174.83a20.06,20.06,0,0,0-19.88-20l-250-1.66Z"/><path class="cls-1" d="M185.08,227.72V236H145.66v-7.58L173,190.3H147.58v-7.62H184.3v7.62l-27,37.42Z"/><path class="cls-1" d="M202.15,236h-9.61V182.68h9.61Z"/><path class="cls-1" d="M223.48,236h-9.61V182.68H235.7q9.34,0,13.85,4.71a16.37,16.37,0,0,1-.37,22.95,17.49,17.49,0,0,1-12.38,4.53H223.48Zm0-29.37h11.37q4.45,0,6.8-2.19a7.58,7.58,0,0,0,2.34-5.82,8,8,0,0,0-2.17-5.62q-2.17-2.34-7.83-2.34H223.48Z"/></g></svg>