<?xml version="1.0" ?><svg width="400px" height="400px" viewBox="0 0 400 400" xmlns="http://www.w3.org/2000/svg"><defs><style>.cls-1{fill:#0f773d;}</style></defs><title/><g id="xxx-word"><path class="cls-1" d="M325,105H250a5,5,0,0,1-5-5V25a5,5,0,1,1,10,0V95h70a5,5,0,0,1,0,10Z"/><path class="cls-1" d="M325,154.83a5,5,0,0,1-5-5V102.07L247.93,30H100A20,20,0,0,0,80,50v98.17a5,5,0,0,1-10,0V50a30,30,0,0,1,30-30H250a5,5,0,0,1,3.54,1.46l75,75A5,5,0,0,1,330,100v49.83A5,5,0,0,1,325,154.83Z"/><path class="cls-1" d="M300,380H100a30,30,0,0,1-30-30V275a5,5,0,0,1,10,0v75a20,20,0,0,0,20,20H300a20,20,0,0,0,20-20V275a5,5,0,0,1,10,0v75A30,30,0,0,1,300,380Z"/><path class="cls-1" d="M275,280H125a5,5,0,1,1,0-10H275a5,5,0,0,1,0,10Z"/><path class="cls-1" d="M200,330H125a5,5,0,1,1,0-10h75a5,5,0,0,1,0,10Z"/><path class="cls-1" d="M325,280H75a30,30,0,0,1-30-30V173.17a30,30,0,0,1,30-30h.2l250,1.66a30.09,30.09,0,0,1,29.81,30V250A30,30,0,0,1,325,280ZM75,153.17a20,20,0,0,0-20,20V250a20,20,0,0,0,20,20H325a20,20,0,0,0,20-20V174.83a20.06,20.06,0,0,0-19.88-20l-250-1.66Z"/><path class="cls-1" d="M152.44,236H117.79V182.68h34.3v7.93H127.4v14.45h19.84v7.73H127.4v14.92h25Z"/><path class="cls-1" d="M190.18,236H180l-8.36-14.37L162.52,236h-7.66L168,215.69l-11.37-19.14h10.2l6.48,11.6,7.38-11.6h7.46L177,213.66Z"/><path class="cls-1" d="M217.4,221.51l7.66.78q-1.49,7.42-5.74,11A15.5,15.5,0,0,1,209,236.82q-8.17,0-12.56-6a23.89,23.89,0,0,1-4.39-14.59q0-8.91,4.8-14.73a15.77,15.77,0,0,1,12.81-5.82q12.89,0,15.35,13.59l-7.66,1.05q-1-7.34-7.23-7.34a6.9,6.9,0,0,0-6.58,4,20.66,20.66,0,0,0-2.05,9.59q0,6,2.13,9.22a6.74,6.74,0,0,0,6,3.24Q215.49,229,217.4,221.51Z"/><path class="cls-1" d="M257,223.42l8,1.09a16.84,16.84,0,0,1-6.09,8.83,18.13,18.13,0,0,1-11.37,3.48q-8.2,0-13.2-5.51t-5-14.92q0-8.94,5-14.8t13.67-5.86q8.44,0,13,5.78t4.61,14.84l0,1H238.61a22.12,22.12,0,0,0,.76,6.45,8.68,8.68,0,0,0,3,4.22,8.83,8.83,0,0,0,5.66,1.8Q254.67,229.83,257,223.42Zm-.55-11.8a9.92,9.92,0,0,0-2.56-7,8.63,8.63,0,0,0-12.36-.18,11.36,11.36,0,0,0-2.89,7.13Z"/><path class="cls-1" d="M282.71,236h-8.91V182.68h8.91Z"/></g></svg>