<?xml version="1.0" encoding="iso-8859-1"?>
<!-- Generator: Adobe Illustrator 19.0.0, SVG Export Plug-In . SVG Version: 6.00 Build 0)  -->
<svg version="1.1" id="Layer_1" xmlns="http://www.w3.org/2000/svg" xmlns:xlink="http://www.w3.org/1999/xlink" x="0px" y="0px"
	 viewBox="0 0 512 512" style="enable-background:new 0 0 512 512;" xml:space="preserve">
<g>
	<g>
		<g>
			<path d="M503.096,189.79c-17.754-66.262-60.031-121.519-119.042-155.589C345.39,11.877,301.351,0.078,256.703,0.078
				c-91.708,0-176.966,48.996-222.501,127.866c-34.068,59.009-43.053,128-25.297,194.264
				c17.755,66.265,60.03,121.52,119.041,155.591c8.211,4.739,16.664,9,25.315,12.779h-3.97c-5.894,0-10.671,4.779-10.671,10.671
				c0,5.894,4.778,10.671,10.671,10.671h105.883c0.042,0,0.083,0.002,0.126,0.002c0.042,0,0.083-0.002,0.125-0.002h107.289
				c5.893,0,10.671-4.778,10.671-10.671c0-5.893-4.779-10.671-10.671-10.671h-4.756c49.665-21.555,92.117-58.5,119.842-106.521
				C511.867,325.045,520.852,256.054,503.096,189.79z M459.315,373.384c-41.715,72.252-119.833,117.149-203.891,117.192h-0.251
				c-40.866-0.021-81.167-10.829-116.556-31.262c-112.109-64.727-150.657-208.592-85.931-320.7
				C94.421,66.327,172.596,21.42,256.704,21.42c40.907,0,81.255,10.811,116.68,31.264
				C485.49,117.41,524.038,261.275,459.315,373.384z"/>
			<path d="M206.287,441.539C140.212,423.831,88.166,371.787,70.46,305.715c-1.525-5.694-7.38-9.075-13.069-7.547
				c-5.693,1.526-9.072,7.378-7.546,13.07c19.673,73.415,77.5,131.242,150.918,150.916c0.924,0.248,1.854,0.367,2.768,0.367
				c4.711,0,9.024-3.145,10.301-7.914C215.358,448.915,211.979,443.064,206.287,441.539z"/>
			<path d="M311.237,49.843c-5.691-1.524-11.543,1.855-13.069,7.547c-1.526,5.692,1.853,11.542,7.546,13.068
				c66.076,17.708,118.121,69.751,135.823,135.823c1.277,4.767,5.589,7.912,10.301,7.912c0.915,0,1.844-0.118,2.768-0.367
				c5.693-1.526,9.072-7.376,7.546-13.068C442.483,127.344,384.656,69.516,311.237,49.843z"/>
			<path d="M249.62,447.977c-2.665-0.09-5.354-0.236-7.99-0.433c-5.854-0.448-11,3.966-11.44,9.844
				c-0.441,5.876,3.965,10.999,9.843,11.439c2.927,0.221,5.911,0.381,8.868,0.481c0.122,0.004,0.244,0.006,0.366,0.006
				c5.727,0,10.465-4.544,10.658-10.311C260.125,453.112,255.51,448.175,249.62,447.977z"/>
			<path d="M262.373,64.02c2.657,0.092,5.352,0.238,8.005,0.433c0.269,0.021,0.536,0.029,0.801,0.029
				c5.534,0,10.214-4.273,10.631-9.882c0.436-5.878-3.975-10.995-9.852-11.432c-2.937-0.217-5.916-0.379-8.857-0.479
				c-5.882-0.219-10.828,4.413-11.029,10.302C251.871,58.883,256.484,63.821,262.373,64.02z"/>
			<path d="M349.398,153.418c-9.284,0-17.994,3.597-24.527,10.131L213.548,274.871l-26.417-26.42
				c-6.532-6.532-15.242-10.129-24.525-10.129c-9.284,0-17.995,3.599-24.526,10.131c-6.534,6.534-10.133,15.244-10.133,24.527
				c0,9.283,3.598,17.993,10.132,24.527l51.017,51.016l0.441,0.433c0.076,0.075,0.155,0.148,0.234,0.221l0.449,0.415
				c0.065,0.063,0.133,0.123,0.201,0.181l0.46,0.404c0.063,0.054,0.125,0.109,0.189,0.16l0.467,0.392
				c0.062,0.05,0.123,0.102,0.186,0.153l0.473,0.378c0.083,0.067,0.168,0.131,0.252,0.196l0.482,0.363
				c0.077,0.059,0.156,0.114,0.235,0.171l0.489,0.348c0.067,0.046,0.134,0.094,0.202,0.14l0.495,0.334
				c0.07,0.048,0.141,0.094,0.211,0.14l0.504,0.323c0.076,0.048,0.153,0.096,0.229,0.144l0.509,0.308
				c0.085,0.052,0.172,0.102,0.258,0.153l0.514,0.291c0.068,0.039,0.135,0.077,0.204,0.114l0.519,0.28
				c0.075,0.039,0.149,0.079,0.224,0.118l0.525,0.267c0.085,0.044,0.171,0.085,0.257,0.127l0.531,0.252
				c0.077,0.037,0.156,0.073,0.235,0.109l0.534,0.24c0.081,0.035,0.163,0.07,0.245,0.107l0.542,0.225
				c0.07,0.029,0.142,0.059,0.212,0.088l0.542,0.212c0.088,0.033,0.175,0.067,0.263,0.098l0.552,0.201
				c0.089,0.031,0.177,0.063,0.266,0.092l0.55,0.184c0.077,0.025,0.156,0.05,0.235,0.075l0.556,0.171
				c0.087,0.027,0.175,0.052,0.264,0.077l0.559,0.157c0.059,0.017,0.118,0.033,0.178,0.048l0.559,0.146
				c0.112,0.029,0.225,0.057,0.337,0.083l0.567,0.127c0.062,0.015,0.123,0.027,0.185,0.039l0.567,0.118
				c0.104,0.021,0.206,0.042,0.309,0.059l0.313,0.057c0.172,0.035,0.345,0.065,0.521,0.092l0.571,0.088
				c0.065,0.009,0.129,0.019,0.194,0.027l0.573,0.075c0.095,0.013,0.19,0.025,0.285,0.035l0.573,0.061
				c0.064,0.006,0.129,0.013,0.195,0.017l0.575,0.05c0.11,0.011,0.219,0.019,0.329,0.025l0.577,0.031
				c0.076,0.004,0.153,0.009,0.228,0.011l0.575,0.021c0.071,0.002,0.143,0.004,0.213,0.004l0.577,0.009
				c0.051,0.002,0.104,0.002,0.155,0.002c0.051,0,0.104,0,0.154-0.002l0.577-0.009c0.07,0,0.142-0.002,0.212-0.004l0.576-0.021
				c0.09-0.002,0.178-0.006,0.268-0.013l0.577-0.033c0.084-0.006,0.17-0.013,0.255-0.019l0.573-0.048
				c0.075-0.006,0.151-0.015,0.225-0.021l0.575-0.061c0.095-0.011,0.19-0.021,0.284-0.033l0.575-0.077
				c0.068-0.008,0.137-0.019,0.205-0.029l0.569-0.085c0.175-0.027,0.349-0.059,0.521-0.094l0.312-0.054
				c0.099-0.019,0.2-0.037,0.298-0.059l0.568-0.116c0.078-0.017,0.155-0.033,0.233-0.052l0.565-0.129
				c0.082-0.019,0.163-0.039,0.244-0.061l0.562-0.144c0.077-0.019,0.155-0.039,0.233-0.063l0.558-0.156
				c0.091-0.025,0.179-0.05,0.269-0.077l0.555-0.173c0.079-0.022,0.157-0.048,0.237-0.075l0.552-0.184
				c0.086-0.029,0.174-0.061,0.26-0.092l0.552-0.201c0.072-0.027,0.144-0.054,0.217-0.081l0.543-0.21
				c0.099-0.039,0.2-0.079,0.297-0.121l0.54-0.227c0.05-0.021,0.1-0.044,0.149-0.064l0.537-0.238
				c0.105-0.046,0.206-0.092,0.308-0.142l0.528-0.252c0.074-0.035,0.147-0.073,0.22-0.109l0.527-0.269
				c0.08-0.039,0.16-0.081,0.24-0.125l0.519-0.28c0.068-0.037,0.137-0.075,0.204-0.114l0.514-0.291
				c0.09-0.052,0.178-0.105,0.266-0.158l0.509-0.308c0.079-0.048,0.159-0.098,0.239-0.148l0.502-0.323
				c0.059-0.039,0.117-0.077,0.176-0.116l0.497-0.334c0.074-0.05,0.147-0.102,0.22-0.153l0.489-0.348
				c0.082-0.059,0.162-0.116,0.243-0.177l0.481-0.363c0.082-0.063,0.163-0.125,0.243-0.19l0.473-0.378
				c0.051-0.042,0.102-0.083,0.154-0.125l0.467-0.387c0.134-0.112,0.267-0.227,0.396-0.346l0.292-0.258
				c0.055-0.048,0.111-0.098,0.164-0.148l0.452-0.415c0.081-0.075,0.162-0.15,0.242-0.229l0.44-0.429
				c0.083-0.079,0.164-0.162,0.244-0.245l135.701-135.699c6.531-6.532,10.128-15.242,10.127-24.525
				c0-9.285-3.598-17.995-10.13-24.525C367.392,157.015,358.682,153.418,349.398,153.418z M358.836,197.51L222.923,333.421
				l-0.757,0.692l-1.815,1.29l-2.064,0.984l-2.573,0.68l-2.166,0.173l-0.317-0.004l-2.261-0.242l-2.177-0.615l-2.316-1.14
				l-1.879-1.417l-51.427-51.406c-2.503-2.503-3.882-5.852-3.882-9.436c0-3.582,1.379-6.932,3.883-9.436
				c2.501-2.503,5.851-3.881,9.435-3.881c3.582,0,6.933,1.378,9.435,3.879l33.961,33.965c2.001,2.001,4.716,3.127,7.546,3.127
				c2.83,0,5.544-1.126,7.546-3.127l118.869-118.869c2.502-2.501,5.852-3.879,9.436-3.879c3.581,0,6.932,1.378,9.437,3.881
				c2.501,2.501,3.879,5.85,3.879,9.433C362.712,191.658,361.336,195.009,358.836,197.51z"/>
		</g>
	</g>
</g>
<g>
</g>
<g>
</g>
<g>
</g>
<g>
</g>
<g>
</g>
<g>
</g>
<g>
</g>
<g>
</g>
<g>
</g>
<g>
</g>
<g>
</g>
<g>
</g>
<g>
</g>
<g>
</g>
<g>
</g>
</svg>
