<?xml version="1.0" encoding="iso-8859-1"?>
<!-- Generator: Adobe Illustrator 18.0.0, SVG Export Plug-In . SVG Version: 6.00 Build 0)  -->
<!DOCTYPE svg PUBLIC "-//W3C//DTD SVG 1.1//EN" "http://www.w3.org/Graphics/SVG/1.1/DTD/svg11.dtd">
<svg version="1.1" id="Capa_1" xmlns="http://www.w3.org/2000/svg" xmlns:xlink="http://www.w3.org/1999/xlink" x="0px" y="0px"
	 viewBox="0 0 60 60" style="enable-background:new 0 0 60 60;" xml:space="preserve">
<g>
	<path d="M36,22H11c-0.553,0-1,0.448-1,1s0.447,1,1,1h25c0.553,0,1-0.448,1-1S36.553,22,36,22z"/>
	<path d="M11,16h10c0.553,0,1-0.448,1-1s-0.447-1-1-1H11c-0.553,0-1,0.448-1,1S10.447,16,11,16z"/>
	<path d="M37,31c0-0.552-0.447-1-1-1H11c-0.553,0-1,0.448-1,1s0.447,1,1,1h25C36.553,32,37,31.552,37,31z"/>
	<path d="M29,39c0-0.552-0.447-1-1-1H11c-0.553,0-1,0.448-1,1s0.447,1,1,1h17C28.553,40,29,39.552,29,39z"/>
	<path d="M11,46c-0.553,0-1,0.448-1,1s0.447,1,1,1h14c0.553,0,1-0.448,1-1s-0.447-1-1-1H11z"/>
	<path d="M2,2h29v14h14v19h2V14.586L32.414,0H0v60h33v-2H2V2z M33,3.414L43.586,14H33V3.414z"/>
	<path d="M56,45.333C55.57,41.225,52.147,38,48.046,38c-2.564,0-4.984,1.287-6.479,3.402c-0.292-0.051-0.587-0.076-0.884-0.076
		c-2.32,0-4.381,1.577-5.066,3.813c-1.907,1.132-3.116,3.242-3.116,5.502c0,3.506,2.785,6.359,6.208,6.359h10.774
		c0.059,0,0.116-0.003,0.185-0.007C49.725,56.997,49.783,57,49.842,57h4.31C57.376,57,60,54.313,60,51.011
		C60,48.411,58.358,46.138,56,45.333z M54.151,55l-4.344-0.002l-0.178-0.006L38.708,55c-2.32,0-4.208-1.956-4.208-4.359
		c0-1.665,0.949-3.209,2.417-3.935l0.435-0.214l0.102-0.474c0.331-1.56,1.689-2.692,3.229-2.692c0.345,0,0.688,0.057,1.019,0.168
		l0.777,0.262l0.409-0.711C43.983,41.138,45.912,40,48.046,40c3.265,0,5.955,2.747,5.999,6.124l0.011,0.814l0.799,0.155
		C56.677,47.446,58,49.094,58,51.011C58,53.21,56.273,55,54.151,55z"/>
</g>
<g>
</g>
<g>
</g>
<g>
</g>
<g>
</g>
<g>
</g>
<g>
</g>
<g>
</g>
<g>
</g>
<g>
</g>
<g>
</g>
<g>
</g>
<g>
</g>
<g>
</g>
<g>
</g>
<g>
</g>
</svg>
