<?xml version="1.0" encoding="iso-8859-1"?>
<!-- Generator: Adobe Illustrator 18.1.1, SVG Export Plug-In . SVG Version: 6.00 Build 0)  -->
<svg version="1.1" id="Capa_1" xmlns="http://www.w3.org/2000/svg" xmlns:xlink="http://www.w3.org/1999/xlink" x="0px" y="0px"
	 viewBox="0 0 38.762 38.762" style="enable-background:new 0 0 38.762 38.762;" xml:space="preserve">
<g>
	<path style="fill:#010002;" d="M33.659,12.165L25.186,0.938c-0.098-0.129-0.196-0.222-0.293-0.297C24.457,0.26,23.85,0,23.305,0
		H6.038C5.174,0,4.472,0.703,4.472,1.565v35.632c0,0.862,0.702,1.565,1.566,1.565h26.686c0.863,0,1.566-0.703,1.566-1.565V14.045
		C34.29,13.439,34.024,12.649,33.659,12.165z M24.873,3.121l5.69,7.543l1.371,1.815h-7.062V3.121H24.873z M19.788,21.572
		c0.123,0.041,11.381,4.295,12.091,14.854c-5.174-9.624-16.281-11.796-16.395-11.814l-2.912,2.912
		c-0.101,0.102-0.189,0.166-0.251,0.204c-0.017-0.065-0.032-0.169-0.032-0.321l0.002-8.606c0.001-0.717,0.584-1.301,1.302-1.301
		l8.606-0.002c0.153,0,0.257,0.016,0.321,0.032c-0.039,0.062-0.104,0.149-0.205,0.25l-2.577,2.539l-0.828,0.879L19.788,21.572z
		 M32.724,32.858c-2.144-7.016-8.828-10.719-11.682-12.005l2.174-2.173c0.857-0.856,0.696-1.623,0.301-2.02
		c-0.291-0.291-0.732-0.438-1.317-0.438l-8.607,0.002c-1.419,0.001-2.573,1.155-2.573,2.573l-0.003,8.607
		c0,0.584,0.147,1.027,0.438,1.316c0.396,0.398,1.163,0.557,2.02-0.299l2.41-2.374c1.936,0.471,10.501,2.993,14.687,11.149H6.038
		V1.566h17.27V12.48c0,0.863,0.701,1.566,1.565,1.566h7.851C32.724,14.046,32.724,32.858,32.724,32.858z"/>
</g>
<g>
</g>
<g>
</g>
<g>
</g>
<g>
</g>
<g>
</g>
<g>
</g>
<g>
</g>
<g>
</g>
<g>
</g>
<g>
</g>
<g>
</g>
<g>
</g>
<g>
</g>
<g>
</g>
<g>
</g>
</svg>
