<?xml version="1.0" ?><svg width="400px" height="400px" viewBox="0 0 400 400" xmlns="http://www.w3.org/2000/svg"><defs><style>.cls-1{fill:#101010;}</style></defs><title/><g id="xxx-word"><path class="cls-1" d="M325,105H250a5,5,0,0,1-5-5V25a5,5,0,1,1,10,0V95h70a5,5,0,0,1,0,10Z"/><path class="cls-1" d="M325,154.83a5,5,0,0,1-5-5V102.07L247.93,30H100A20,20,0,0,0,80,50v98.17a5,5,0,0,1-10,0V50a30,30,0,0,1,30-30H250a5,5,0,0,1,3.54,1.46l75,75A5,5,0,0,1,330,100v49.83A5,5,0,0,1,325,154.83Z"/><path class="cls-1" d="M300,380H100a30,30,0,0,1-30-30V275a5,5,0,0,1,10,0v75a20,20,0,0,0,20,20H300a20,20,0,0,0,20-20V275a5,5,0,0,1,10,0v75A30,30,0,0,1,300,380Z"/><path class="cls-1" d="M275,280H125a5,5,0,1,1,0-10H275a5,5,0,0,1,0,10Z"/><path class="cls-1" d="M200,330H125a5,5,0,1,1,0-10h75a5,5,0,0,1,0,10Z"/><path class="cls-1" d="M325,280H75a30,30,0,0,1-30-30V173.17a30,30,0,0,1,30-30h.2l250,1.66a30.09,30.09,0,0,1,29.81,30V250A30,30,0,0,1,325,280ZM75,153.17a20,20,0,0,0-20,20V250a20,20,0,0,0,20,20H325a20,20,0,0,0,20-20V174.83a20.06,20.06,0,0,0-19.88-20l-250-1.66Z"/><path class="cls-1" d="M172.23,236H137.58V182.68h34.3v7.93H147.19v14.45H167v7.73H147.19v14.92h25Z"/><path class="cls-1" d="M190.12,236h-9.61V182.68h21.84q9.34,0,13.85,4.71a16.37,16.37,0,0,1-.37,22.95,17.49,17.49,0,0,1-12.38,4.53H190.12Zm0-29.37h11.37q4.45,0,6.8-2.19a7.58,7.58,0,0,0,2.34-5.82,8,8,0,0,0-2.17-5.62q-2.17-2.34-7.83-2.34H190.12Z"/><path class="cls-1" d="M222.85,223.15l9.34-2q1.68,7.93,12.89,7.93,5.12,0,7.87-2a6.07,6.07,0,0,0,2.75-5,7.09,7.09,0,0,0-1.25-4q-1.25-1.85-5.35-2.91l-10.2-2.66a25.1,25.1,0,0,1-7.73-3.11,12.15,12.15,0,0,1-4-4.9,15.54,15.54,0,0,1-1.5-6.76A14,14,0,0,1,231,186.18q5.31-4.32,13.59-4.32a24.86,24.86,0,0,1,12.29,3,13.56,13.56,0,0,1,6.89,8.52l-9.14,2.27q-2.11-6.05-9.84-6.05-4.49,0-6.86,1.88a5.83,5.83,0,0,0-2.36,4.77q0,4.57,7.42,6.41l9.06,2.27q8.24,2.07,11.05,6.11a15.29,15.29,0,0,1,2.81,8.93A14.7,14.7,0,0,1,260,232.31q-5.92,4.51-15.33,4.51a28,28,0,0,1-13.89-3.32A16.29,16.29,0,0,1,222.85,223.15Z"/></g></svg>