<?xml version="1.0" ?><svg width="400px" height="400px" viewBox="0 0 400 400" xmlns="http://www.w3.org/2000/svg"><defs><style>.cls-1{fill:#fd7a00;}</style></defs><title/><g id="xxx-word"><path class="cls-1" d="M325,105H250a5,5,0,0,1-5-5V25a5,5,0,1,1,10,0V95h70a5,5,0,0,1,0,10Z"/><path class="cls-1" d="M325,154.83a5,5,0,0,1-5-5V102.07L247.93,30H100A20,20,0,0,0,80,50v98.17a5,5,0,0,1-10,0V50a30,30,0,0,1,30-30H250a5,5,0,0,1,3.54,1.46l75,75A5,5,0,0,1,330,100v49.83A5,5,0,0,1,325,154.83Z"/><path class="cls-1" d="M300,380H100a30,30,0,0,1-30-30V275a5,5,0,0,1,10,0v75a20,20,0,0,0,20,20H300a20,20,0,0,0,20-20V275a5,5,0,0,1,10,0v75A30,30,0,0,1,300,380Z"/><path class="cls-1" d="M275,280H125a5,5,0,1,1,0-10H275a5,5,0,0,1,0,10Z"/><path class="cls-1" d="M200,330H125a5,5,0,1,1,0-10h75a5,5,0,0,1,0,10Z"/><path class="cls-1" d="M325,280H75a30,30,0,0,1-30-30V173.17a30,30,0,0,1,30-30h.2l250,1.66a30.09,30.09,0,0,1,29.81,30V250A30,30,0,0,1,325,280ZM75,153.17a20,20,0,0,0-20,20V250a20,20,0,0,0,20,20H325a20,20,0,0,0,20-20V174.83a20.06,20.06,0,0,0-19.88-20l-250-1.66Z"/><path class="cls-1" d="M157.07,236h-9.61V182.68H169.3q9.34,0,13.85,4.71a16.37,16.37,0,0,1-.37,22.95,17.49,17.49,0,0,1-12.38,4.53H157.07Zm0-29.37h11.37q4.45,0,6.8-2.19a7.58,7.58,0,0,0,2.34-5.82,8,8,0,0,0-2.17-5.62q-2.17-2.34-7.83-2.34H157.07Z"/><path class="cls-1" d="M203.95,249.32h-9.06V196.55h8.52v6.88q4.1-7.69,12.07-7.7a12.1,12.1,0,0,1,10.47,5.7q3.91,5.7,3.91,14.57a27.84,27.84,0,0,1-3.73,14.61A12.15,12.15,0,0,1,215,236.82q-7.62,0-11.05-6.33Zm0-29.49A10.23,10.23,0,0,0,206.5,227a7.55,7.55,0,0,0,5.68,2.83,6.57,6.57,0,0,0,6.23-3.73,20.16,20.16,0,0,0,2-9.47,20.91,20.91,0,0,0-2-9.79,6.37,6.37,0,0,0-5.94-3.77,7.5,7.5,0,0,0-6,3.09,12.51,12.51,0,0,0-2.48,8.09Z"/><path class="cls-1" d="M256.25,229v7a31.56,31.56,0,0,1-6.17.86,12.57,12.57,0,0,1-6.17-1.43,8.72,8.72,0,0,1-3.77-3.91q-1.19-2.48-1.19-7.64V203.46H234v-6.91h5.43l.82-10.27,7.3-.66v10.94h7.93v6.91h-7.93v19.26q0,3.71,1.35,5.06t5.1,1.35Q255.08,229.13,256.25,229Z"/></g></svg>