<?xml version="1.0" ?><svg width="64px" height="64px" viewBox="0 0 64 64" xmlns="http://www.w3.org/2000/svg"><defs><style>.cls-1{fill:none;stroke:#000;stroke-linecap:round;stroke-linejoin:round;stroke-width:2px;}</style></defs><title/><g data-name="Layer 50" id="Layer_50"><path class="cls-1" d="M15.73,11.53H48.14a4.18,4.18,0,0,1,4.18,4.18v36a11,11,0,0,1-11,11H22.58a11,11,0,0,1-11-11v-36A4.18,4.18,0,0,1,15.73,11.53Z"/><rect class="cls-1" height="5.01" rx="2.43" ry="2.43" width="48.84" x="7.52" y="6.52"/><path class="cls-1" d="M21.79,6.52h0a5.32,5.32,0,0,1,5.32-5.33h9.81a5.33,5.33,0,0,1,5.33,5.33h0"/><rect class="cls-1" height="38.88" width="2.88" x="30.5" y="16.75"/><rect class="cls-1" height="38.88" width="2.88" x="16.13" y="16.75"/><rect class="cls-1" height="38.88" width="2.88" x="44.63" y="16.75"/></g></svg>