<?xml version="1.0" encoding="UTF-8" standalone="no"?>
<!DOCTYPE svg PUBLIC "-//W3C//DTD SVG 1.1//EN" "http://www.w3.org/Graphics/SVG/1.1/DTD/svg11.dtd">
<svg xmlns="http://www.w3.org/2000/svg" xmlns:xlink="http://www.w3.org/1999/xlink" version="1.1" width="175pt" height="175pt" viewBox="0 0 375 375">
<g enable-background="new">
<clipPath id="cp0">
<path transform="matrix(.24,0,0,.24,0,0)" d="M 0 0 L 1562.5 0 L 1562.5 1593.75 L 0 1593.75 Z " fill-rule="evenodd"/>
</clipPath>
<g clip-path="url(#cp0)">
<path transform="matrix(.75,0,0,.75,0,0)" d="M 0 0 L 500 0 L 500 510 L 0 510 Z " fill="#ffffff"/>
</g>
<clipPath id="cp1">
<path transform="matrix(.24,0,0,.24,0,0)" d="M 0 0 L 1562.5 0 L 1562.5 1562.5 L 0 1562.5 Z " fill-rule="evenodd"/>
</clipPath>
<g clip-path="url(#cp1)">
<path transform="matrix(.75,0,0,.75,0,0)" d="M 0 0 L 500 0 L 500 500 L 0 500 Z " fill="#ffffff"/>
</g>
<clipPath id="cp2">
<path transform="matrix(.24,0,0,.24,0,0)" d="M 0 0 L 1562.5 0 L 1562.5 1562.5 L 0 1562.5 Z " fill-rule="evenodd"/>
</clipPath>
<g clip-path="url(#cp2)">
<path transform="matrix(.75,0,0,.75,0,0)" d="M 0 0 L 500 0 L 500 500 L 0 500 Z " fill="#ffffff"/>
</g>
<clipPath id="cp3">
<path transform="matrix(.24,0,0,.24,0,0)" d="M 280.48277 612.9891 L 1467.9828 612.9891 L 1467.9828 1562.5 L 280.48277 1562.5 Z " fill-rule="evenodd"/>
</clipPath>
<g clip-path="url(#cp3)">
<path transform="matrix(.40714289,0,0,.40714289,67.31586,147.11737)" d="M 484.69 221.11 C 564.93606 221.11 630 286.172 630 366.41999 C 630 446.666 564.938 511.72999 484.69 511.72999 C 404.44203 511.72999 339.38 446.66798 339.38 366.41999 C 339.38 286.162 404.439 221.10999 484.69 221.10999 L 484.69 221.11 Z M 484.69 342.36 C 482.3502 342.36 480.0767 342.69593 477.9361 343.32484 L 465.0451 320.99284 C 463.467 318.27015 459.9826 317.3405 457.25993 318.92253 C 454.53724 320.5006 453.6076 323.98503 455.1896 326.7077 L 468.0806 349.0277 C 463.4986 353.40663 460.6431 359.5787 460.6431 366.4227 C 460.6431 379.7037 471.4161 390.4817 484.7021 390.4817 C 497.9831 390.4817 508.76109 379.70869 508.76109 366.4227 C 508.76109 364.0829 508.42515 361.8094 507.79624 359.6688 L 551.7692 334.2778 C 554.49197 332.6997 555.4215 329.2153 553.83956 326.4926 C 552.2614 323.76994 548.77706 322.8403 546.0543 324.4223 L 502.08134 349.8013 C 497.70634 345.2154 491.53434 342.3599 484.69035 342.3599 L 484.69 342.36 Z M 490.4009 252.84799 L 490.4009 264.856 C 490.4009 268.01618 487.84623 270.5669 484.69 270.5669 C 481.52983 270.5669 478.9791 268.0122 478.9791 264.856 L 478.9791 252.84799 C 462.4131 253.6644 446.7801 258.0355 432.8111 265.203 L 438.8267 275.617 C 440.3931 278.3397 439.4556 281.81233 436.73289 283.3787 C 434.0102 284.9451 430.53758 284.0076 428.9712 281.28489 L 422.979 270.9019 C 416.2251 275.2808 409.952 280.3433 404.288 286.0229 C 398.62 291.6909 393.546 297.95289 389.179 304.70289 L 399.585 310.7068 C 402.30769 312.28489 403.2373 315.7693 401.6553 318.49198 C 400.0772 321.21467 396.5928 322.1443 393.87013 320.5623 L 383.47514 314.55839 C 376.30714 328.52339 371.94013 344.16038 371.13114 360.73439 L 383.13914 360.73439 C 386.27583 360.73439 388.83055 363.27738 388.83055 366.42579 C 388.83055 369.56248 386.28755 372.1172 383.13914 372.1172 L 371.13114 372.1172 C 371.94755 388.6912 376.31864 404.34019 383.48616 418.30519 L 393.90016 412.28959 C 396.62284 410.72319 400.09547 411.66069 401.66184 414.3834 C 403.22825 417.10609 402.29075 420.5787 399.56803 422.14509 L 389.18504 428.13728 C 393.56394 434.89118 398.62644 441.16429 404.30604 446.82829 C 409.97404 452.49629 416.23603 457.5583 422.98603 461.9373 L 428.98994 451.53129 C 430.56803 448.8086 434.05244 447.87898 436.77513 449.46098 C 439.4978 451.03907 440.42744 454.52348 438.84544 457.24617 L 432.84153 467.64115 C 446.80653 474.80915 462.4435 479.17616 479.01753 479.99617 L 479.01753 467.98817 C 479.01753 464.85148 481.56053 462.29676 484.70893 462.29676 C 487.8456 462.29676 490.40034 464.83976 490.40034 467.98817 L 490.40034 479.99617 C 506.97434 479.17976 522.62338 474.80867 536.5883 467.64115 L 530.5727 457.22715 C 529.0063 454.50447 529.9438 451.03184 532.6665 449.46546 C 535.3892 447.89906 538.8618 448.83656 540.4282 451.55928 L 546.4204 461.94227 C 553.1743 457.56336 559.4474 452.50086 565.1114 446.82127 C 570.7794 441.15327 575.8534 434.89128 580.2204 428.14128 L 569.8144 422.13737 C 567.0917 420.55928 566.1621 417.07487 567.7441 414.35218 C 569.3222 411.6295 572.8066 410.69987 575.5293 412.28187 L 585.9243 418.28578 C 593.09237 404.32078 597.4593 388.68379 598.2793 372.10978 L 586.2713 372.10978 C 583.1346 372.10978 580.5799 369.56678 580.5799 366.41838 C 580.5799 363.28169 583.1229 360.72697 586.2713 360.72697 L 598.2793 360.72697 C 597.4629 344.15296 593.0918 328.51597 585.9243 314.55097 L 575.5183 320.55488 C 572.7956 322.13298 569.3152 321.2033 567.7331 318.48457 C 566.15499 315.76188 567.08468 312.28147 569.8034 310.69938 L 580.2094 304.69548 C 575.8305 297.94157 570.768 291.67948 565.1004 286.01548 C 559.4324 280.34748 553.1704 275.27348 546.4204 270.90647 L 540.4165 281.31248 C 538.8384 284.03517 535.354 284.96479 532.6313 283.38279 C 529.90859 281.8047 528.979 278.32029 530.561 275.5976 L 536.5649 265.1916 C 522.59988 258.0236 506.9669 253.66458 490.40089 252.8476 L 490.4009 252.84799 Z M 423.2129 518.598 C 409.48289 513.04336 396.6699 505.68403 385.06489 496.81303 L 69.99487 496.81303 L 69.99487 518.598 L 423.2129 518.598 Z M 362.3179 474.21104 C 326.8919 435.02305 320.5989 392.95304 320.5989 366.411 C 320.5989 323.493 337.0869 284.415 364.0679 255.17102 C 363.96635 254.73352 363.91166 254.26477 363.91166 253.79212 L 364.1226 177.51111 L 295.1186 177.51111 L 295.1186 473.3611 L 362.3179 474.21104 Z M 88.257907 291.101 L 357.5679 91.38101 C 359.9741 89.58801 363.3804 90.103717 365.1617 92.51381 L 375.47773 106.41181 L 399.45774 41.38481 L 330.26274 45.45121 L 340.56773 59.34921 C 342.3489 61.75541 341.84504 65.16171 339.4349 66.94301 L 70.13492 266.673 L 88.257907 291.101 Z M 146.15991 368.652 L 69.99991 368.652 L 69.99991 473.45204 L 146.15991 473.45204 L 146.15991 368.652 Z M 255.5899 267.902 L 255.5899 473.45204 L 185.69892 473.45204 L 185.69892 267.90205 L 255.5899 267.902 Z " fill-rule="evenodd"/>
</g>
<clipPath id="cp4">
<path transform="matrix(.24,0,0,.24,0,0)" d="M 0 0 L 1562.5 0 L 1562.5 1562.5 L 0 1562.5 Z " fill-rule="evenodd"/>
</clipPath>
<g clip-path="url(#cp4)">
<g id="Layer-1" data-name="P">
</g>
<text fill-opacity=".4" xml:space="preserve" transform="matrix(.75 0 0 .75 -20.540154 78.70094)" font-size="82.66" font-family="Bitter"><tspan y="85" x="41.875 90.64212 129.07723 176.19123 224.54508 262.98017 306.7879 345.71897 384.65 415.64604 469.37254">Progress-up</tspan></text>
<g id="Layer-1" data-name="P">
</g>
<text fill="#ff1616" xml:space="preserve" transform="matrix(.75 0 0 .75 -23.280201 75.96089)" font-size="82.66" font-family="Bitter"><tspan y="85" x="41.875 90.64212 129.07723 176.19123 224.54508 262.98017 306.7879 345.71897 384.65 415.64604 469.37254">Progress-up</tspan></text>
</g>
</g>
</svg>
