<?xml version="1.0" encoding="UTF-8"?>
<!DOCTYPE svg PUBLIC "-//W3C//DTD SVG 1.1//EN" "http://www.w3.org/Graphics/SVG/1.1/DTD/svg11.dtd">
<svg xmlns="http://www.w3.org/2000/svg" version="1.1" width="473px" height="281px" style="shape-rendering:geometricPrecision; text-rendering:geometricPrecision; image-rendering:optimizeQuality; fill-rule:evenodd; clip-rule:evenodd" xmlns:xlink="http://www.w3.org/1999/xlink">
<g><path style="opacity:0.857" fill="#9a2e50" d="M 186.5,3.5 C 187.619,5.78748 189.285,7.62081 191.5,9C 191.272,9.39877 190.938,9.56544 190.5,9.5C 180.619,6.66348 170.619,5.99682 160.5,7.5C 158.614,6.06985 156.947,4.40318 155.5,2.5C 165.946,0.902915 176.279,1.23625 186.5,3.5 Z"/></g>
<g><path style="opacity:0.837" fill="#893064" d="M 155.5,2.5 C 156.947,4.40318 158.614,6.06985 160.5,7.5C 154.516,8.16215 148.849,9.82882 143.5,12.5C 142.833,10.5 141.5,9.16667 139.5,8.5C 144.418,5.59552 149.752,3.59552 155.5,2.5 Z"/></g>
<g><path style="opacity:0.89" fill="#a32d44" d="M 186.5,3.5 C 210.443,9.60162 227.61,23.935 238,46.5C 239.477,50.4299 240.644,54.4299 241.5,58.5C 239.5,57.1667 237.5,55.8333 235.5,54.5C 227.474,32.4741 212.474,17.4741 190.5,9.5C 190.938,9.56544 191.272,9.39877 191.5,9C 189.285,7.62081 187.619,5.78748 186.5,3.5 Z"/></g>
<g><path style="opacity:1" fill="#803070" d="M 164.5,10.5 C 165.833,12.5 167.5,14.1667 169.5,15.5C 166.038,16.4816 162.371,16.815 158.5,16.5C 157.5,15.1667 156.5,13.8333 155.5,12.5C 158.311,11.525 161.311,10.8583 164.5,10.5 Z"/></g>
<g><path style="opacity:0.847" fill="#962e54" d="M 164.5,10.5 C 167.5,10.5 170.5,10.5 173.5,10.5C 174.415,12.7541 175.748,14.7541 177.5,16.5C 174.721,16.7214 172.054,16.388 169.5,15.5C 167.5,14.1667 165.833,12.5 164.5,10.5 Z"/></g>
<g><path style="opacity:1" fill="#a52d41" d="M 173.5,10.5 C 175.903,10.448 178.236,10.7814 180.5,11.5C 182.167,13.5 183.833,15.5 185.5,17.5C 182.833,17.1667 180.167,16.8333 177.5,16.5C 175.748,14.7541 174.415,12.7541 173.5,10.5 Z"/></g>
<g><path style="opacity:0.87" fill="#b42c2e" d="M 180.5,11.5 C 187.739,12.2461 194.406,14.5794 200.5,18.5C 201.726,23.0558 200.393,26.7224 196.5,29.5C 195.167,28.5 193.833,27.5 192.5,26.5C 193.117,24.7708 194.117,23.2708 195.5,22C 192.107,20.38 188.774,18.88 185.5,17.5C 183.833,15.5 182.167,13.5 180.5,11.5 Z"/></g>
<g><path style="opacity:0.861" fill="#653393" d="M 155.5,12.5 C 156.5,13.8333 157.5,15.1667 158.5,16.5C 155.659,17.6693 152.659,18.6693 149.5,19.5C 148.473,17.8058 147.139,16.4725 145.5,15.5C 148.574,13.698 151.908,12.698 155.5,12.5 Z"/></g>
<g><path style="opacity:0.913" fill="#3d36c5" d="M 145.5,15.5 C 147.139,16.4725 148.473,17.8058 149.5,19.5C 147.86,20.3201 146.193,21.1534 144.5,22C 147.08,25.1584 149.413,28.4918 151.5,32C 152.819,32.195 154.153,32.0283 155.5,31.5C 157.167,32.5 158.5,33.8333 159.5,35.5C 155.235,37.955 151.068,37.955 147,35.5C 143.782,30.897 140.948,26.0637 138.5,21C 139.807,17.8597 142.14,16.0264 145.5,15.5 Z"/></g>
<g><path style="opacity:0.938" fill="#793179" d="M 139.5,8.5 C 141.5,9.16667 142.833,10.5 143.5,12.5C 135.008,16.2452 127.341,21.2452 120.5,27.5C 119.5,26.5 118.5,25.5 117.5,24.5C 123.455,17.1969 130.788,11.8636 139.5,8.5 Z"/></g>
<g><path style="opacity:0.878" fill="#8b2f62" d="M 233.5,64.5 C 231.246,63.5849 229.246,62.2516 227.5,60.5C 224.457,50.071 219.124,41.071 211.5,33.5C 209.929,34.9754 208.595,36.642 207.5,38.5C 205.833,37.8333 204.167,37.1667 202.5,36.5C 204.121,33.4328 206.121,30.5995 208.5,28C 210.5,27.3333 212.5,27.3333 214.5,28C 224.921,38.0073 231.254,50.174 233.5,64.5 Z"/></g>
<g><path style="opacity:1" fill="#5434a8" d="M 167.5,28.5 C 168.415,30.7541 169.748,32.7541 171.5,34.5C 167.434,34.307 163.434,34.6403 159.5,35.5C 158.5,33.8333 157.167,32.5 155.5,31.5C 159.287,30.0825 163.287,29.0825 167.5,28.5 Z"/></g>
<g><path style="opacity:1" fill="#803070" d="M 175.5,29.5 C 180.033,29.7169 184.366,30.7169 188.5,32.5C 189.974,33.4363 190.974,34.7697 191.5,36.5C 187.823,37.7911 184.156,37.4577 180.5,35.5C 178.833,33.5 177.167,31.5 175.5,29.5 Z"/></g>
<g><path style="opacity:0.879" fill="#962e54" d="M 138.5,48.5 C 136.468,47.9522 135.468,46.6188 135.5,44.5C 134.428,40.529 132.428,37.029 129.5,34C 126.854,34.4596 124.854,35.9596 123.5,38.5C 121.596,38.2624 120.262,37.2624 119.5,35.5C 121.457,31.5431 124.457,28.5431 128.5,26.5C 129.5,27 130.5,27.5 131.5,28C 137.065,33.1525 140.231,39.3192 141,46.5C 140.292,47.3805 139.458,48.0472 138.5,48.5 Z"/></g>
<g><path style="opacity:1" fill="#6f3285" d="M 167.5,28.5 C 170.279,28.2786 172.946,28.612 175.5,29.5C 177.167,31.5 178.833,33.5 180.5,35.5C 177.57,34.701 174.57,34.3677 171.5,34.5C 169.748,32.7541 168.415,30.7541 167.5,28.5 Z"/></g>
<g><path style="opacity:0.88" fill="#992e51" d="M 192.5,26.5 C 193.833,27.5 195.167,28.5 196.5,29.5C 195.214,32.117 193.547,34.4504 191.5,36.5C 190.974,34.7697 189.974,33.4363 188.5,32.5C 189.475,30.2048 190.808,28.2048 192.5,26.5 Z"/></g>
<g><path style="opacity:0.884" fill="#653393" d="M 117.5,24.5 C 118.5,25.5 119.5,26.5 120.5,27.5C 114.567,34.3614 109.9,42.028 106.5,50.5C 104.589,49.925 102.922,48.925 101.5,47.5C 104.617,38.2587 109.95,30.592 117.5,24.5 Z"/></g>
<g><path style="opacity:0.938" fill="#733180" d="M 202.5,36.5 C 204.167,37.1667 205.833,37.8333 207.5,38.5C 203.498,42.5798 203.998,46.2465 209,49.5C 212.018,54.5289 214.184,59.8622 215.5,65.5C 213.284,64.7974 211.451,63.4641 210,61.5C 209.617,62.056 209.117,62.3893 208.5,62.5C 206.615,56.3964 203.449,51.063 199,46.5C 197.755,42.2353 198.922,38.902 202.5,36.5 Z"/></g>
<g><path style="opacity:0.907" fill="#7e3173" d="M 119.5,35.5 C 120.262,37.2624 121.596,38.2624 123.5,38.5C 120.568,42.7021 117.902,47.0354 115.5,51.5C 114.89,49.5659 113.89,47.8993 112.5,46.5C 114.087,42.3171 116.421,38.6505 119.5,35.5 Z"/></g>
<g><path style="opacity:0.924" fill="#803071" d="M 143.5,47.5 C 144.873,47.3433 146.207,47.51 147.5,48C 151.742,50.6096 155.742,53.4429 159.5,56.5C 164.117,61.4536 168.784,66.4536 173.5,71.5C 167.833,68.1667 162.167,64.8333 156.5,61.5C 156.5,60.8333 156.167,60.5 155.5,60.5C 155.5,59.8333 155.167,59.5 154.5,59.5C 149.444,56.7773 145.777,52.7773 143.5,47.5 Z"/></g>
<g><path style="opacity:0.957" fill="#82306d" d="M 135.5,44.5 C 135.468,46.6188 136.468,47.9522 138.5,48.5C 136.163,52.5079 133.83,56.5079 131.5,60.5C 129.859,59.853 128.526,58.853 127.5,57.5C 128.917,52.3212 131.583,47.9879 135.5,44.5 Z"/></g>
<g><path style="opacity:0.933" fill="#873067" d="M 159.5,56.5 C 166.221,59.9526 172.388,64.2859 178,69.5C 180.118,73.0992 179.951,76.4325 177.5,79.5C 176.167,78.5 174.833,77.5 173.5,76.5C 174.071,75.0267 174.071,73.36 173.5,71.5C 168.784,66.4536 164.117,61.4536 159.5,56.5 Z"/></g>
<g><path style="opacity:0.829" fill="#6a338b" d="M 112.5,46.5 C 113.89,47.8993 114.89,49.5659 115.5,51.5C 114.131,55.9334 112.797,60.2667 111.5,64.5C 110.5,62.8333 109.167,61.5 107.5,60.5C 107.999,55.3308 109.666,50.6642 112.5,46.5 Z"/></g>
<g><path style="opacity:0.859" fill="#7a3076" d="M 227.5,60.5 C 229.246,62.2516 231.246,63.5849 233.5,64.5C 234.344,68.0991 234.677,71.7657 234.5,75.5C 232.716,74.044 230.716,73.044 228.5,72.5C 228.495,68.4659 228.162,64.4659 227.5,60.5 Z"/></g>
<g><path style="opacity:0.822" fill="#982e51" d="M 235.5,54.5 C 237.5,55.8333 239.5,57.1667 241.5,58.5C 243.58,66.8977 243.913,75.231 242.5,83.5C 241.672,80.0122 240.005,77.0122 237.5,74.5C 237.613,67.7457 236.947,61.0791 235.5,54.5 Z"/></g>
<g><path style="opacity:0.85" fill="#5134ac" d="M 101.5,47.5 C 102.922,48.925 104.589,49.925 106.5,50.5C 102.315,62.165 100.982,74.165 102.5,86.5C 100.5,85.1667 98.5,83.8333 96.5,82.5C 95.6541,70.4214 97.3207,58.7548 101.5,47.5 Z"/></g>
<g><path style="opacity:0.821" fill="#6e3286" d="M 127.5,57.5 C 128.526,58.853 129.859,59.853 131.5,60.5C 129.844,66.3638 129.177,72.3638 129.5,78.5C 128.21,76.208 126.543,74.208 124.5,72.5C 124.124,67.1059 125.124,62.1059 127.5,57.5 Z"/></g>
<g><path style="opacity:0.793" fill="#6d3287" d="M 143.5,47.5 C 145.777,52.7773 149.444,56.7773 154.5,59.5C 155.167,59.5 155.5,59.8333 155.5,60.5C 156.167,60.5 156.5,60.8333 156.5,61.5C 159.804,68.4603 164.304,74.4603 170,79.5C 171.729,79.0257 172.895,78.0257 173.5,76.5C 174.833,77.5 176.167,78.5 177.5,79.5C 174.278,84.5147 169.945,85.6813 164.5,83C 155.932,72.7762 148.599,61.7762 142.5,50C 142.528,48.9302 142.861,48.0968 143.5,47.5 Z"/></g>
<g><path style="opacity:0.816" fill="#5634a6" d="M 107.5,60.5 C 109.167,61.5 110.5,62.8333 111.5,64.5C 111.789,68.1064 111.456,71.6064 110.5,75C 111.103,76.8254 111.77,78.6587 112.5,80.5C 116.122,79.2919 119.789,78.2919 123.5,77.5C 123.216,75.5853 123.549,73.9187 124.5,72.5C 126.543,74.208 128.21,76.208 129.5,78.5C 127.436,81.7059 124.436,83.5392 120.5,84C 117.312,84.7554 114.145,85.5887 111,86.5C 108.541,86.1098 106.874,84.7765 106,82.5C 105.097,74.9272 105.597,67.5939 107.5,60.5 Z"/></g>
<g><path style="opacity:0.863" fill="#673290" d="M 215.5,65.5 C 216.021,69.4809 216.354,73.4809 216.5,77.5C 220.211,78.2919 223.878,79.2919 227.5,80.5C 228.923,77.7856 229.257,75.1189 228.5,72.5C 230.716,73.044 232.716,74.044 234.5,75.5C 234.929,79.4587 233.929,82.9587 231.5,86C 225.002,85.7299 218.669,84.3965 212.5,82C 211.029,75.572 209.695,69.072 208.5,62.5C 209.117,62.3893 209.617,62.056 210,61.5C 211.451,63.4641 213.284,64.7974 215.5,65.5 Z"/></g>
<g><path style="opacity:0.925" fill="#6959bf" d="M 445.5,79.5 C 456.568,79.1191 464.068,84.1191 468,94.5C 476.474,118.673 468.308,130.007 443.5,128.5C 446.747,136.323 449.414,144.323 451.5,152.5C 449.063,152.756 446.729,153.423 444.5,154.5C 436.031,132.758 428.364,110.758 421.5,88.5C 423.199,88.3796 424.865,88.0463 426.5,87.5C 428.272,88.3599 429.605,89.6932 430.5,91.5C 433.787,85.1981 438.787,81.1981 445.5,79.5 Z M 443.5,87.5 C 450.663,86.3311 455.829,88.9978 459,95.5C 462.195,101.825 463.195,108.491 462,115.5C 457.775,122.345 451.942,124.178 444.5,121C 436.813,113.277 433.98,104.11 436,93.5C 438.114,90.8792 440.614,88.8792 443.5,87.5 Z"/></g>
<g><path style="opacity:0.863" fill="#8e2f5e" d="M 237.5,74.5 C 240.005,77.0122 241.672,80.0122 242.5,83.5C 242.419,88.4767 241.419,93.1434 239.5,97.5C 238.876,95.246 237.543,93.5794 235.5,92.5C 237.156,86.6354 237.823,80.6354 237.5,74.5 Z"/></g>
<g><path style="opacity:0.625" fill="#a52c41" d="M 173.5,92.5 C 174.833,92.5 176.167,92.5 177.5,92.5C 179.252,94.2459 180.585,96.2459 181.5,98.5C 180.167,98.5 178.833,98.5 177.5,98.5C 175.774,96.7721 174.441,94.7721 173.5,92.5 Z"/></g>
<g><path style="opacity:0.841" fill="#b62c2d" d="M 177.5,92.5 C 182.844,92.334 188.177,92.5006 193.5,93C 194.766,93.3095 195.933,93.8095 197,94.5C 200.856,99.8373 204.023,105.504 206.5,111.5C 206.338,115.326 204.338,116.993 200.5,116.5C 199.167,114.833 197.833,113.167 196.5,111.5C 198.199,111.66 199.866,111.494 201.5,111C 198.71,107.254 196.043,103.421 193.5,99.5C 189.555,98.5091 185.555,98.1758 181.5,98.5C 180.585,96.2459 179.252,94.2459 177.5,92.5 Z"/></g>
<g><path style="opacity:0.917" fill="#633394" d="M 146.5,92.5 C 148.833,92.5 151.167,92.5 153.5,92.5C 154.838,94.6957 156.505,96.6957 158.5,98.5C 156.167,98.5 153.833,98.5 151.5,98.5C 149.833,96.5 148.167,94.5 146.5,92.5 Z"/></g>
<g><path style="opacity:0.886" fill="#4236bd" d="M 96.5,82.5 C 98.5,83.8333 100.5,85.1667 102.5,86.5C 105.162,98.8327 110.495,109.833 118.5,119.5C 124.463,120.496 130.463,120.829 136.5,120.5C 137.46,122.461 138.793,124.127 140.5,125.5C 132.493,125.666 124.493,125.5 116.5,125C 105.132,113.094 98.4649,98.9276 96.5,82.5 Z"/></g>
<g><path style="opacity:1" fill="#863068" d="M 160.5,92.5 C 162.5,92.5 164.5,92.5 166.5,92.5C 168.167,94.5 169.833,96.5 171.5,98.5C 169.5,98.5 167.5,98.5 165.5,98.5C 164.55,95.8851 162.883,93.8851 160.5,92.5 Z"/></g>
<g><path style="opacity:0.925" fill="#6a59be" d="M 404.5,94.5 C 405.833,94.5 407.167,94.5 408.5,94.5C 413.094,109.281 418.094,123.947 423.5,138.5C 419.706,142.334 416.706,142 414.5,137.5C 407.569,147.801 398.236,150.968 386.5,147C 385.333,145.833 384.167,144.667 383,143.5C 378.299,131.728 373.799,119.895 369.5,108C 371.951,105.789 374.618,104.956 377.5,105.5C 381.098,115.128 384.598,124.795 388,134.5C 390.823,141.398 395.657,143.231 402.5,140C 406.974,137.889 409.641,134.389 410.5,129.5C 407.871,118.779 404.537,108.279 400.5,98C 401.347,96.2294 402.68,95.0627 404.5,94.5 Z"/></g>
<g><path style="opacity:1" fill="#77317c" d="M 153.5,92.5 C 155.833,92.5 158.167,92.5 160.5,92.5C 162.883,93.8851 164.55,95.8851 165.5,98.5C 163.167,98.5 160.833,98.5 158.5,98.5C 156.505,96.6957 154.838,94.6957 153.5,92.5 Z"/></g>
<g><path style="opacity:1" fill="#972f53" d="M 166.5,92.5 C 168.833,92.5 171.167,92.5 173.5,92.5C 174.441,94.7721 175.774,96.7721 177.5,98.5C 175.5,98.5 173.5,98.5 171.5,98.5C 169.833,96.5 168.167,94.5 166.5,92.5 Z"/></g>
<g><path style="opacity:0.924" fill="#3d36c5" d="M 146.5,92.5 C 148.167,94.5 149.833,96.5 151.5,98.5C 149.712,98.2148 148.045,98.5481 146.5,99.5C 143.957,103.421 141.29,107.254 138.5,111C 145.826,111.5 153.159,111.666 160.5,111.5C 161.833,113.167 163.167,114.833 164.5,116.5C 154.828,116.666 145.161,116.5 135.5,116C 133.009,113.032 132.843,109.865 135,106.5C 137.667,102.5 140.333,98.5 143,94.5C 144.113,93.695 145.279,93.0283 146.5,92.5 Z"/></g>
<g><path style="opacity:1" fill="#5534a6" d="M 160.5,111.5 C 163.5,111.5 166.5,111.5 169.5,111.5C 170.833,113.167 172.167,114.833 173.5,116.5C 170.5,116.5 167.5,116.5 164.5,116.5C 163.167,114.833 161.833,113.167 160.5,111.5 Z"/></g>
<g><path style="opacity:1" fill="#74317f" d="M 169.5,111.5 C 173.5,111.5 177.5,111.5 181.5,111.5C 182.075,113.411 183.075,115.078 184.5,116.5C 180.833,116.5 177.167,116.5 173.5,116.5C 172.167,114.833 170.833,113.167 169.5,111.5 Z"/></g>
<g><path style="opacity:1" fill="#a42d43" d="M 189.5,111.5 C 191.833,111.5 194.167,111.5 196.5,111.5C 197.833,113.167 199.167,114.833 200.5,116.5C 198.167,116.5 195.833,116.5 193.5,116.5C 192.167,114.833 190.833,113.167 189.5,111.5 Z"/></g>
<g><path style="opacity:0.9" fill="#912f5b" d="M 181.5,111.5 C 184.167,111.5 186.833,111.5 189.5,111.5C 190.833,113.167 192.167,114.833 193.5,116.5C 190.5,116.5 187.5,116.5 184.5,116.5C 183.075,115.078 182.075,113.411 181.5,111.5 Z"/></g>
<g><path style="opacity:0.934" fill="#7d3173" d="M 235.5,92.5 C 237.543,93.5794 238.876,95.246 239.5,97.5C 236.964,107.676 231.964,116.342 224.5,123.5C 223.402,122.603 223.402,121.77 224.5,121C 223.263,120.768 222.263,120.268 221.5,119.5C 227.996,111.511 232.662,102.511 235.5,92.5 Z"/></g>
<g><path style="opacity:0.94" fill="#4d35af" d="M 136.5,120.5 C 143.167,120.5 149.833,120.5 156.5,120.5C 157.833,122.167 159.167,123.833 160.5,125.5C 153.833,125.5 147.167,125.5 140.5,125.5C 138.793,124.127 137.46,122.461 136.5,120.5 Z"/></g>
<g><path style="opacity:0.952" fill="#5d339c" d="M 156.5,120.5 C 166.5,120.5 176.5,120.5 186.5,120.5C 187.46,122.461 188.793,124.127 190.5,125.5C 180.5,125.5 170.5,125.5 160.5,125.5C 159.167,123.833 157.833,122.167 156.5,120.5 Z"/></g>
<g><path style="opacity:0.96" fill="#6d3288" d="M 221.5,119.5 C 222.263,120.268 223.263,120.768 224.5,121C 223.402,121.77 223.402,122.603 224.5,123.5C 224.389,124.117 224.056,124.617 223.5,125C 212.505,125.5 201.505,125.667 190.5,125.5C 188.793,124.127 187.46,122.461 186.5,120.5C 198.247,120.811 209.914,120.478 221.5,119.5 Z"/></g>
<g><path style="opacity:0.915" fill="#6a59be" d="M 323.5,122.5 C 326.833,122.5 330.167,122.5 333.5,122.5C 333.5,124.833 333.5,127.167 333.5,129.5C 325.796,128.798 318.962,130.798 313,135.5C 311.729,139.166 312.896,141.666 316.5,143C 323.525,143.412 330.525,144.079 337.5,145C 344.738,148.655 347.238,154.488 345,162.5C 340.561,168.976 334.395,172.81 326.5,174C 322.848,174.499 319.182,174.665 315.5,174.5C 315.335,172.173 314.669,170.007 313.5,168C 321.335,168.407 328.668,166.74 335.5,163C 339.5,159.667 339.5,156.333 335.5,153C 327.872,151.859 320.205,150.859 312.5,150C 304.838,146.359 302.671,140.526 306,132.5C 310.692,127.007 316.525,123.674 323.5,122.5 Z"/></g>
<g><path style="opacity:0.903" fill="#6959bf" d="M 366.5,129.5 C 368.655,131.617 369.655,134.284 369.5,137.5C 362.928,139.19 356.428,141.19 350,143.5C 348.19,141.933 347.023,139.933 346.5,137.5C 353.177,134.613 359.844,131.947 366.5,129.5 Z"/></g>
<g><path style="opacity:0.911" fill="#6959bf" d="M 283.5,136.5 C 286.833,136.5 290.167,136.5 293.5,136.5C 293.5,138.833 293.5,141.167 293.5,143.5C 286.432,143.079 279.932,144.745 274,148.5C 271.791,152.207 272.624,155.04 276.5,157C 284.612,157.239 292.612,158.239 300.5,160C 308.757,168.097 308.424,175.764 299.5,183C 292.4,187.359 284.734,189.025 276.5,188C 275.331,185.993 274.665,183.827 274.5,181.5C 281.489,182.093 288.156,180.926 294.5,178C 299.31,174.645 299.644,170.979 295.5,167C 287.881,165.797 280.214,164.797 272.5,164C 264.869,159.656 263.036,153.489 267,145.5C 271.788,141.026 277.288,138.026 283.5,136.5 Z"/></g>
<g><path style="opacity:0.916" fill="#6959be" d="M 236.5,152.5 C 250.724,151.04 259.391,157.373 262.5,171.5C 252.805,175.954 242.805,179.621 232.5,182.5C 235.35,192.259 241.683,195.759 251.5,193C 256.16,191.005 260.494,188.505 264.5,185.5C 265.557,187.003 266.224,188.67 266.5,190.5C 265.394,193.441 263.394,195.608 260.5,197C 240.618,206.474 227.784,200.64 222,179.5C 219.556,166.378 224.389,157.378 236.5,152.5 Z M 237.5,159.5 C 245.265,158.609 249.932,161.942 251.5,169.5C 244.314,171.229 237.314,173.562 230.5,176.5C 228.191,168.798 230.524,163.131 237.5,159.5 Z"/></g>
<g><path style="opacity:0.916" fill="#6959be" d="M 208.5,162.5 C 210.977,164.416 211.977,167.083 211.5,170.5C 203.182,171.484 198.516,176.151 197.5,184.5C 200.264,194.694 203.598,204.694 207.5,214.5C 205.258,215.692 202.925,216.692 200.5,217.5C 196.519,208.73 193.019,199.73 190,190.5C 187.651,184.289 185.818,177.956 184.5,171.5C 186.512,170.986 188.512,170.82 190.5,171C 191.542,172.918 192.708,174.751 194,176.5C 196.124,168.874 200.957,164.207 208.5,162.5 Z"/></g>
<g><path style="opacity:0.923" fill="#6959be" d="M 173.5,175.5 C 176.633,175.761 177.8,177.428 177,180.5C 174.913,181.794 172.746,182.961 170.5,184C 177.663,191.457 178.329,199.457 172.5,208C 168.437,210.698 164.103,212.865 159.5,214.5C 156.43,218.009 157.097,220.342 161.5,221.5C 166.584,220.306 171.584,218.806 176.5,217C 190.331,215.504 195.831,221.671 193,235.5C 190.833,240.333 187.333,243.833 182.5,246C 173.811,250.948 164.811,251.948 155.5,249C 148.89,242.17 148.89,235.337 155.5,228.5C 149.709,224.379 149.043,219.546 153.5,214C 145.014,211.895 140.681,206.395 140.5,197.5C 140.492,192.011 142.826,187.844 147.5,185C 156.253,181.821 164.919,178.654 173.5,175.5 Z M 156.5,187.5 C 164.056,186.887 168.056,190.387 168.5,198C 167.913,204.233 164.413,207.399 158,207.5C 150.319,205.137 147.652,200.137 150,192.5C 151.805,190.174 153.972,188.508 156.5,187.5 Z M 177.5,224.5 C 184.314,224.49 186.814,227.823 185,234.5C 178.609,241.738 170.776,244.572 161.5,243C 158.277,239.888 157.777,236.388 160,232.5C 165.6,229.142 171.433,226.475 177.5,224.5 Z"/></g>
<g><path style="opacity:0.926" fill="#6959bf" d="M 108.5,197.5 C 123.584,195.458 133.084,201.792 137,216.5C 141.088,230.824 136.254,240.657 122.5,246C 107.365,248.516 97.8649,242.349 94,227.5C 90.0344,213.1 94.8677,203.1 108.5,197.5 Z M 110.5,204.5 C 120.582,204.395 126.748,209.395 129,219.5C 132.108,235.059 125.941,241.225 110.5,238C 102.624,230.707 99.7903,221.873 102,211.5C 104.217,208.323 107.05,205.989 110.5,204.5 Z"/></g>
<g><path style="opacity:0.924" fill="#6a59be" d="M 76.5,208.5 C 78.1992,208.34 79.8659,208.506 81.5,209C 82.1667,211 82.8333,213 83.5,215C 74.5066,215.824 69.8399,220.658 69.5,229.5C 71.585,239.59 74.585,249.423 78.5,259C 76.2805,261.575 73.6138,262.408 70.5,261.5C 64.9338,246.969 60.1004,232.302 56,217.5C 58.0065,216.331 60.1732,215.665 62.5,215.5C 62.7553,218.016 63.5886,220.35 65,222.5C 66.1419,215.533 69.9752,210.866 76.5,208.5 Z"/></g>
<g><path style="opacity:0.925" fill="#6a5abe" d="M 26.5,211.5 C 39.4555,211.789 46.1222,218.455 46.5,231.5C 46.6297,238.073 43.963,243.24 38.5,247C 33.156,250.115 27.4894,252.448 21.5,254C 24.4354,261.21 27.1021,268.544 29.5,276C 28.2217,278.171 26.2217,279.338 23.5,279.5C 22.3527,279.182 21.5194,278.516 21,277.5C 14.5969,258.79 8.09688,240.124 1.5,221.5C 1.83333,220.833 2.16667,220.167 2.5,219.5C 10.4212,216.193 18.4212,213.526 26.5,211.5 Z M 23.5,219.5 C 34.5134,219.179 39.3467,224.513 38,235.5C 33.0956,241.872 26.5956,245.539 18.5,246.5C 16.3649,238.762 14.0316,231.096 11.5,223.5C 15.6472,222.34 19.6472,221.007 23.5,219.5 Z"/></g>
</svg>
